<svg xmlns="http://www.w3.org/2000/svg" xmlns:xlink="http://www.w3.org/1999/xlink" viewBox="0,0,256,256" width="48px" height="48px" fill-rule="nonzero"><g fill="#344c11" fill-rule="nonzero" stroke="none" stroke-width="1" stroke-linecap="butt" stroke-linejoin="miter" stroke-miterlimit="10" stroke-dasharray="" stroke-dashoffset="0" font-family="none" font-weight="none" font-size="none" text-anchor="none" style="mix-blend-mode: normal"><g transform="scale(5.33333,5.33333)"><path d="M44,24c0,11.045 -8.955,20 -20,20c-11.045,0 -20,-8.955 -20,-20c0,-11.045 8.955,-20 20,-20c11.045,0 20,8.955 20,20zM17.05,22.59c-1.17,-1.18 -3.07,-1.18 -4.24,0l-1.71,1.7l4.66,4.66l3.82,-3.83zM18.879,32.071c1.172,1.172 3.071,1.172 4.243,0l13.435,-13.435l-1.707,-1.707c-1.172,-1.172 -3.071,-1.172 -4.243,0l-13.435,13.435z"></path></g></g></svg>